<svg xmlns="http://www.w3.org/2000/svg" xmlns:xlink="http://www.w3.org/1999/xlink" viewBox="0 0 356.59 243.21"><defs><style>.cls-1{fill:url(#linear-gradient);}.cls-2{fill:url(#linear-gradient-2);}.cls-3{fill:url(#linear-gradient-3);}.cls-4{fill:url(#linear-gradient-4);}.cls-5{fill:url(#linear-gradient-5);}.cls-6{fill:url(#linear-gradient-6);}.cls-7{fill:url(#linear-gradient-7);}.cls-8{fill:url(#linear-gradient-8);}.cls-9{fill:url(#linear-gradient-9);}.cls-10{fill:url(#linear-gradient-10);}.cls-11{fill:url(#linear-gradient-11);}.cls-12{fill:url(#linear-gradient-12);}.cls-13{fill:url(#linear-gradient-13);}.cls-14{fill:url(#linear-gradient-14);}.cls-15{fill:url(#linear-gradient-15);}.cls-16{fill:url(#linear-gradient-16);}.cls-17{fill:url(#linear-gradient-17);}.cls-18{fill:url(#linear-gradient-18);}.cls-19{fill:url(#linear-gradient-19);}.cls-20{fill:url(#linear-gradient-20);}.cls-21{fill:url(#linear-gradient-21);}.cls-22{fill:url(#linear-gradient-22);}.cls-23{fill:url(#linear-gradient-23);}.cls-24{fill:url(#linear-gradient-24);}.cls-25{fill:url(#linear-gradient-25);}.cls-26{fill:url(#linear-gradient-26);}</style><linearGradient id="linear-gradient" x1="122.56" y1="-4.4" x2="122.56" y2="253.64" gradientUnits="userSpaceOnUse"><stop offset="0" stop-color="#1b1464" stop-opacity="0"/><stop offset="0" stop-color="#0c3779" stop-opacity="0.13"/><stop offset="0.01" stop-color="#1a79a4" stop-opacity="0.16"/><stop offset="0.02" stop-color="#29bfd2" stop-opacity="0.2"/><stop offset="0.5" stop-color="#00cdd1"/><stop offset="0.55" stop-color="#00c9d0" stop-opacity="0.86"/><stop offset="0.62" stop-color="#00c3cf" stop-opacity="0.66"/><stop offset="0.69" stop-color="#00bece" stop-opacity="0.49"/><stop offset="0.77" stop-color="#00bbce" stop-opacity="0.36"/><stop offset="0.84" stop-color="#00b8cd" stop-opacity="0.27"/><stop offset="0.92" stop-color="#00b7cd" stop-opacity="0.22"/><stop offset="1" stop-color="#00b6cd" stop-opacity="0.2"/></linearGradient><linearGradient id="linear-gradient-2" x1="129.94" y1="-4.4" x2="129.94" y2="253.64" xlink:href="#linear-gradient"/><linearGradient id="linear-gradient-3" x1="137.32" y1="-4.4" x2="137.32" y2="253.64" xlink:href="#linear-gradient"/><linearGradient id="linear-gradient-4" x1="144.7" y1="-4.4" x2="144.7" y2="253.64" xlink:href="#linear-gradient"/><linearGradient id="linear-gradient-5" x1="152.08" y1="-4.4" x2="152.08" y2="253.64" xlink:href="#linear-gradient"/><linearGradient id="linear-gradient-6" x1="159.46" y1="-4.4" x2="159.46" y2="253.64" xlink:href="#linear-gradient"/><linearGradient id="linear-gradient-7" x1="166.84" y1="-4.4" x2="166.84" y2="253.64" xlink:href="#linear-gradient"/><linearGradient id="linear-gradient-8" x1="174.22" y1="-4.4" x2="174.22" y2="253.64" xlink:href="#linear-gradient"/><linearGradient id="linear-gradient-9" x1="181.6" y1="-4.4" x2="181.6" y2="253.64" xlink:href="#linear-gradient"/><linearGradient id="linear-gradient-10" x1="188.98" y1="-4.4" x2="188.98" y2="253.64" xlink:href="#linear-gradient"/><linearGradient id="linear-gradient-11" x1="196.36" y1="-4.4" x2="196.36" y2="253.64" xlink:href="#linear-gradient"/><linearGradient id="linear-gradient-12" x1="203.73" y1="-4.4" x2="203.73" y2="253.64" xlink:href="#linear-gradient"/><linearGradient id="linear-gradient-13" x1="211.12" y1="-4.4" x2="211.12" y2="253.64" xlink:href="#linear-gradient"/><linearGradient id="linear-gradient-14" x1="218.49" y1="-4.4" x2="218.49" y2="253.64" xlink:href="#linear-gradient"/><linearGradient id="linear-gradient-15" x1="225.87" y1="-4.4" x2="225.87" y2="253.64" xlink:href="#linear-gradient"/><linearGradient id="linear-gradient-16" x1="233.25" y1="-4.4" x2="233.25" y2="253.64" xlink:href="#linear-gradient"/><linearGradient id="linear-gradient-17" x1="237.33" y1="-4.4" x2="237.33" y2="253.64" xlink:href="#linear-gradient"/><linearGradient id="linear-gradient-18" x1="241.02" y1="-4.4" x2="241.02" y2="253.64" xlink:href="#linear-gradient"/><linearGradient id="linear-gradient-19" x1="244.71" y1="-4.4" x2="244.71" y2="253.64" xlink:href="#linear-gradient"/><linearGradient id="linear-gradient-20" x1="248.4" y1="-4.4" x2="248.4" y2="253.64" xlink:href="#linear-gradient"/><linearGradient id="linear-gradient-21" x1="252.09" y1="-4.4" x2="252.09" y2="253.64" xlink:href="#linear-gradient"/><linearGradient id="linear-gradient-22" x1="255.78" y1="-4.4" x2="255.78" y2="253.64" xlink:href="#linear-gradient"/><linearGradient id="linear-gradient-23" x1="259.47" y1="-4.4" x2="259.47" y2="253.64" xlink:href="#linear-gradient"/><linearGradient id="linear-gradient-24" x1="263.16" y1="-4.4" x2="263.16" y2="253.64" xlink:href="#linear-gradient"/><linearGradient id="linear-gradient-25" x1="266.84" y1="-4.4" x2="266.84" y2="253.64" xlink:href="#linear-gradient"/><linearGradient id="linear-gradient-26" x1="270.54" y1="-4.4" x2="270.54" y2="253.64" xlink:href="#linear-gradient"/></defs><title>bg</title><g id="Layer_2" data-name="Layer 2"><g id="Layer_1-2" data-name="Layer 1"><polygon class="cls-1" points="245.12 0 1.91 243.21 0 243.21 243.22 0 245.12 0"/><polygon class="cls-2" points="252.5 0 9.29 243.21 7.39 243.21 250.6 0 252.5 0"/><polygon class="cls-3" points="259.88 0 16.66 243.21 14.77 243.21 257.98 0 259.88 0"/><polygon class="cls-4" points="267.25 0 24.06 243.21 22.15 243.21 265.36 0 267.25 0"/><polygon class="cls-5" points="274.63 0 31.42 243.21 29.53 243.21 272.74 0 274.63 0"/><polygon class="cls-6" points="282.01 0 38.81 243.21 36.9 243.21 280.12 0 282.01 0"/><polygon class="cls-7" points="289.4 0 46.18 243.21 44.28 243.21 287.49 0 289.4 0"/><polygon class="cls-8" points="296.78 0 53.57 243.21 51.66 243.21 294.87 0 296.78 0"/><polygon class="cls-9" points="304.16 0 60.93 243.21 59.04 243.21 302.25 0 304.16 0"/><polygon class="cls-10" points="311.54 0 68.33 243.21 66.42 243.21 309.63 0 311.54 0"/><polygon class="cls-11" points="318.92 0 75.7 243.21 73.81 243.21 317.01 0 318.92 0"/><polygon class="cls-12" points="326.29 0 83.08 243.21 81.17 243.21 324.4 0 326.29 0"/><polygon class="cls-13" points="333.67 0 90.46 243.21 88.56 243.21 331.78 0 333.67 0"/><polygon class="cls-14" points="341.05 0 97.84 243.21 95.93 243.21 339.15 0 341.05 0"/><polygon class="cls-15" points="348.43 0 105.22 243.21 103.32 243.21 346.53 0 348.43 0"/><polygon class="cls-16" points="355.81 0 112.59 243.21 110.7 243.21 353.91 0 355.81 0"/><polygon class="cls-17" points="356.59 4.7 356.59 6.6 119.99 243.21 118.08 243.21 356.59 4.7"/><polygon class="cls-18" points="356.59 12.08 356.59 13.99 127.35 243.21 125.46 243.21 356.59 12.08"/><polygon class="cls-19" points="356.59 19.46 356.59 21.36 134.74 243.21 132.83 243.21 356.59 19.46"/><polygon class="cls-20" points="356.59 26.84 356.59 28.75 142.11 243.21 140.21 243.21 356.59 26.84"/><polygon class="cls-21" points="356.59 34.22 356.59 36.13 149.5 243.21 147.59 243.21 356.59 34.22"/><polygon class="cls-22" points="356.59 41.59 356.59 43.5 156.88 243.21 154.98 243.21 356.59 41.59"/><polygon class="cls-23" points="356.59 48.97 356.59 50.88 164.25 243.21 162.35 243.21 356.59 48.97"/><polygon class="cls-24" points="356.59 56.35 356.59 58.26 171.63 243.21 169.74 243.21 356.59 56.35"/><polygon class="cls-25" points="356.59 63.74 356.59 65.64 179.01 243.21 177.1 243.21 356.59 63.74"/><polygon class="cls-26" points="356.59 71.12 356.59 73.02 186.39 243.21 184.5 243.21 356.59 71.12"/></g></g></svg>