<svg xmlns="http://www.w3.org/2000/svg" xmlns:xlink="http://www.w3.org/1999/xlink" viewBox="0 0 261.43 240.87"><defs><style>.cls-1{isolation:isolate;}.cls-2{fill:url(#linear-gradient);}.cls-3{fill:url(#linear-gradient-2);}.cls-12,.cls-4,.cls-5{mix-blend-mode:multiply;}.cls-4{fill:url(#linear-gradient-3);}.cls-5{opacity:0.4;fill:url(#linear-gradient-4);}.cls-6{fill:url(#linear-gradient-5);}.cls-7{fill:url(#linear-gradient-6);}.cls-8{fill:url(#linear-gradient-7);}.cls-9{fill:url(#linear-gradient-8);}.cls-10{fill:#fff;}.cls-11{opacity:0.5;mix-blend-mode:screen;fill:url(#linear-gradient-9);}.cls-12{fill:url(#radial-gradient);}</style><linearGradient id="linear-gradient" x1="653.85" y1="214.96" x2="738.55" y2="214.96" gradientTransform="matrix(-1, 0, 0, 1, 821.61, 0)" gradientUnits="userSpaceOnUse"><stop offset="0" stop-color="#c8c8c8"/><stop offset="0.33" stop-color="#6f6d6c"/><stop offset="0.53" stop-color="#fff"/><stop offset="0.82" stop-color="#9c9d9d"/><stop offset="0.87" stop-color="#a1a2a2"/><stop offset="0.93" stop-color="#b0b0b0"/><stop offset="1" stop-color="#c8c8c8"/></linearGradient><linearGradient id="linear-gradient-2" x1="721.36" y1="230.44" x2="719.27" y2="194.48" xlink:href="#linear-gradient"/><linearGradient id="linear-gradient-3" x1="665.24" y1="224.23" x2="711.27" y2="224.23" gradientTransform="matrix(-1, 0, 0, 1, 821.61, 0)" gradientUnits="userSpaceOnUse"><stop offset="0" stop-color="#c8c8c8"/><stop offset="0.53" stop-color="#f2f3f3"/><stop offset="1" stop-color="#c8c8c8"/></linearGradient><linearGradient id="linear-gradient-4" x1="704.18" y1="203.26" x2="703.81" y2="196.95" xlink:href="#linear-gradient-3"/><linearGradient id="linear-gradient-5" x1="687.85" y1="-283.55" x2="687.85" y2="386.03" gradientTransform="matrix(-1, 0, 0, 1, 821.61, 0)" gradientUnits="userSpaceOnUse"><stop offset="0" stop-color="#c8c8c8"/><stop offset="0.57" stop-color="#dddcdb"/><stop offset="0.82" stop-color="#9c9d9d"/><stop offset="0.87" stop-color="#a1a2a2"/><stop offset="0.93" stop-color="#b0b0b0"/><stop offset="1" stop-color="#c8c8c8"/></linearGradient><linearGradient id="linear-gradient-6" x1="495.99" y1="102.84" x2="1051.57" y2="102.08" xlink:href="#linear-gradient-3"/><linearGradient id="linear-gradient-7" x1="566.26" y1="86.88" x2="820.02" y2="86.88" gradientTransform="matrix(-1, 0, 0, 1, 821.61, 0)" gradientUnits="userSpaceOnUse"><stop offset="0" stop-color="#050505"/><stop offset="1" stop-color="#242424"/></linearGradient><linearGradient id="linear-gradient-8" x1="901.66" y1="-1.57" x2="455.54" y2="196.79" gradientTransform="matrix(-1, 0, 0, 1, 821.61, 0)" gradientUnits="userSpaceOnUse"><stop offset="0" stop-color="#6800ed"/><stop offset="0.07" stop-color="#620ae9"/><stop offset="0.2" stop-color="#5226dd"/><stop offset="0.37" stop-color="#3853cb"/><stop offset="0.57" stop-color="#1591b2"/><stop offset="0.67" stop-color="#00b5a3"/></linearGradient><linearGradient id="linear-gradient-9" x1="699.36" y1="112.1" x2="824.48" y2="138.84" gradientTransform="matrix(-1, 0, 0, 1, 821.61, 0)" gradientUnits="userSpaceOnUse"><stop offset="0" stop-color="#6dd1f2"/><stop offset="0.13" stop-color="#61b2df" stop-opacity="0.81"/><stop offset="0.3" stop-color="#518bc7" stop-opacity="0.56"/><stop offset="0.47" stop-color="#456bb3" stop-opacity="0.36"/><stop offset="0.63" stop-color="#3b52a4" stop-opacity="0.2"/><stop offset="0.77" stop-color="#344099" stop-opacity="0.09"/><stop offset="0.9" stop-color="#303592" stop-opacity="0.02"/><stop offset="1" stop-color="#2e3190" stop-opacity="0"/></linearGradient><radialGradient id="radial-gradient" cx="-117.29" cy="3447.31" fx="-108.61742546293098" fy="3478.7918817100813" r="32.66" gradientTransform="translate(286.11 -15.6) scale(1.61 0.07)" gradientUnits="userSpaceOnUse"><stop offset="0" stop-color="#00d5e6" stop-opacity="0.3"/><stop offset="0.26" stop-color="#01c2de" stop-opacity="0.24"/><stop offset="0.73" stop-color="#0392c8" stop-opacity="0.1"/><stop offset="1" stop-color="#0571ba" stop-opacity="0"/></radialGradient></defs><title>laptopBanner_5</title><g class="cls-1"><g id="Layer_2" data-name="Layer 2"><g id="Layer_1-2" data-name="Layer 1"><path class="cls-2" d="M141.73,197.58s4.46,12.67,5.6,16.66,2.92,10.95-6.87,14a117.5,117.5,0,0,1-13.74,3.23,47.83,47.83,0,0,1-8.46.83c-2.18,0-57.22-1.59-60.07-1.78s-4.56-2.09-1.4-1.9c2.76.17,43.29-.19,53.46-5.6S140.21,207.56,141.73,197.58Z"/><path class="cls-3" d="M140.4,198.6s1.83,5,4.56,13.68.77,13.06-9.12,15.45c-5.51,1.32-12.86,2.18-12.86,2.18l-64.54-.34a13.39,13.39,0,0,1-2.83-.31c-1.16-.32.14-.62,2-.94,8-1.37,20-1.36,27.16-3.13,10.76-2.66,12.16-6.71,11-13.55a109,109,0,0,0-3-12.92Z"/><path class="cls-4" d="M95.14,219.37a8.67,8.67,0,0,0,.38-.82l50.24,2.29c-.93,3.35-4,5.46-9.92,6.89-5.51,1.32-12.86,2.18-12.86,2.18l-25.1-.13C98.81,223.72,96.65,220.69,95.14,219.37Z"/><path class="cls-5" d="M93.74,202.15c-.56-2.08-1-3.43-1-3.43l47.63-.12s.71,1.93,1.91,5.51Z"/><path class="cls-6" d="M18.11,43.33a8.18,8.18,0,0,1,2.05-4.78A8,8,0,0,1,24.68,36L250.8.1c1.75,0,4.75,1,7.72,4.1a10.3,10.3,0,0,1,2.9,7.35L247.89,196.67a9.48,9.48,0,0,1-9.8,8.8L10.84,196.76a4.93,4.93,0,0,1-4.74-5.34Z"/><path class="cls-7" d="M12,43.33A8.14,8.14,0,0,1,18.6,36L250.19.08a4.33,4.33,0,0,1,5.15,4.56l-13.53,192a9.48,9.48,0,0,1-9.8,8.8L4.76,196.76A4.93,4.93,0,0,1,0,191.42Z"/><path class="cls-8" d="M1.58,172,12,43.33A8.14,8.14,0,0,1,18.6,36L250.19.08a4.33,4.33,0,0,1,5.15,4.56L243.53,173.76Z"/><polygon class="cls-9" points="245.36 14.93 233.96 166.4 9.99 166.65 20.71 48.15 245.36 14.93"/><path class="cls-10" d="M89.09,119.11l54.1-7.62c3.63-.51,7.56-3.68,9.35-7.54l17.4-37.49L92.69,69.23V47.46l-19-2.6a2.8,2.8,0,0,0-2.49,1.61c-.52,1-.25,1.92.6,2l17.24,2.37Zm75.8-48.85-15.54,33.49a7.28,7.28,0,0,1-5.08,4.09l-51.56,7.27,0-42.26Z"/><path class="cls-10" d="M69.26,143l70.53-4.29a3,3,0,0,0,2.35-1.93c.37-1-.08-1.79-1-1.74L70.6,139.36a1.59,1.59,0,0,1-1.84-1.76,4.39,4.39,0,0,1,1.93-3.32l20.83-15.87a2.43,2.43,0,0,0,1.08-2.6c-.34-.72-1.37-.72-2.31,0L69.46,131.67c-2.58,2-4.27,4.88-4.32,7.43A3.59,3.59,0,0,0,69.26,143Z"/><polygon class="cls-10" points="92.19 87.29 160.12 83.16 160.51 82.11 92.57 86.24 92.19 87.29"/><polygon class="cls-10" points="91.28 100.11 154.52 96.26 154.9 95.21 91.66 99.06 91.28 100.11"/><polygon class="cls-10" points="140.41 110.09 141.37 110.04 156.08 69.82 155.12 69.88 140.41 110.09"/><polygon class="cls-10" points="127.85 110.86 128.81 110.8 143.52 70.58 142.56 70.64 127.85 110.86"/><polygon class="cls-10" points="114.51 113.74 115.47 113.69 131.39 70.17 130.43 70.22 114.51 113.74"/><polygon class="cls-10" points="101.61 115.43 102.57 115.37 118.83 70.93 117.87 70.99 101.61 115.43"/><polygon class="cls-10" points="90.16 113.15 91.12 113.09 106.46 71.17 105.5 71.23 90.16 113.15"/><path class="cls-10" d="M120.43,145.32c-1,2.61.21,4.61,2.6,4.46s5.1-2.38,6.06-5-.21-4.61-2.6-4.46S121.39,142.71,120.43,145.32Z"/><path class="cls-10" d="M73.11,148.2c-1,2.61.21,4.6,2.6,4.46s5.1-2.38,6.05-5-.21-4.61-2.6-4.46S74.06,145.59,73.11,148.2Z"/><path class="cls-11" d="M12,43.33A8.14,8.14,0,0,1,18.6,36l44.51-6.9,95.27,173.56L4.76,196.76A4.93,4.93,0,0,1,0,191.42Z"/><path class="cls-12" d="M149.45,238.46c0,1.33-23.6,2.41-52.72,2.41S44,239.79,44,238.46s23.6-2.41,52.73-2.41S149.45,237.13,149.45,238.46Z"/></g></g></g></svg>