<svg xmlns="http://www.w3.org/2000/svg" xmlns:xlink="http://www.w3.org/1999/xlink" viewBox="0 0 329.01 75.02"><defs><style>.cls-1{isolation:isolate;}.cls-2{fill:url(#Degradado_sin_nombre_40);}.cls-3{fill:url(#Degradado_sin_nombre_40-2);}.cls-4{fill:url(#Degradado_sin_nombre_40-3);}.cls-5,.cls-6{mix-blend-mode:overlay;}.cls-5{fill:url(#Degradado_sin_nombre_47);}.cls-6{fill:url(#Degradado_sin_nombre_47-2);}.cls-7{font-size:52px;fill:#f3f0fc;font-family:ChakraPetch-Bold, Chakra Petch;font-weight:700;}.cls-8{letter-spacing:-0.09em;}</style><linearGradient id="Degradado_sin_nombre_40" x1="16" y1="0.09" x2="16.45" y2="30.82" gradientUnits="userSpaceOnUse"><stop offset="0" stop-color="#00ffd0"/><stop offset="1" stop-color="#a328ff"/></linearGradient><linearGradient id="Degradado_sin_nombre_40-2" x1="23.6" y1="56" x2="23.39" y2="4.09" xlink:href="#Degradado_sin_nombre_40"/><linearGradient id="Degradado_sin_nombre_40-3" x1="25.67" y1="-0.05" x2="26.12" y2="30.68" xlink:href="#Degradado_sin_nombre_40"/><linearGradient id="Degradado_sin_nombre_47" x1="26.05" y1="10.17" x2="26.09" y2="13.87" gradientUnits="userSpaceOnUse"><stop offset="0" stop-color="#00bfe3" stop-opacity="0"/><stop offset="1"/></linearGradient><linearGradient id="Degradado_sin_nombre_47-2" x1="439.07" y1="-92.36" x2="439.1" y2="-88.66" gradientTransform="translate(465.15 -71.21) rotate(180)" xlink:href="#Degradado_sin_nombre_47"/></defs><title>AppLogoWhite</title><g class="cls-1"><g id="Layer_2" data-name="Layer 2"><g id="Layer_1-2" data-name="Layer 1"><path class="cls-2" d="M27.82,7.2v6.71H24.31v-3.2H10V25.46a3.6,3.6,0,1,1-3.51,0V7.2Z"/><path class="cls-3" d="M47,15.66v34H0v-47H33.43a4.37,4.37,0,1,1,0,3.51H3.51v40h40V19.17H16.56V37h17.8V31.13a4.39,4.39,0,0,1-2.55-3.34,3.67,3.67,0,0,1,0-.66,4.37,4.37,0,1,1,6.11,4V40.5H13.05V15.66Z"/><path class="cls-4" d="M29.66,26.94a3.6,3.6,0,1,1-5.35-3.14V17.42h3.51V23.8a3.58,3.58,0,0,1,1.76,2.41A3.4,3.4,0,0,1,29.66,26.94Z"/><polygon class="cls-5" points="24.31 13.91 27.82 13.91 27.82 9.76 24.31 10.71 24.31 13.91"/><polygon class="cls-6" points="27.82 17.42 24.31 17.42 24.31 21.57 27.82 20.61 27.82 17.42"/><text class="cls-7" transform="translate(55.85 45.59)">riginal<tspan class="cls-8" x="155.17" y="0">T</tspan><tspan x="180.85" y="0">ech</tspan></text></g></g></g></svg>