<svg xmlns="http://www.w3.org/2000/svg" xmlns:xlink="http://www.w3.org/1999/xlink" viewBox="0 0 77.13 96.41"><defs><style>.cls-1{isolation:isolate;}.cls-2{fill:url(#Degradado_sin_nombre_3);}.cls-3{fill:url(#Degradado_sin_nombre_3-2);}.cls-4{fill:url(#Degradado_sin_nombre_3-3);}.cls-5,.cls-6{mix-blend-mode:overlay;}.cls-5{fill:url(#Degradado_sin_nombre_2);}.cls-6{fill:url(#Degradado_sin_nombre_2-2);}</style><linearGradient id="Degradado_sin_nombre_3" x1="26.16" y1="0.22" x2="27.04" y2="59.92" gradientUnits="userSpaceOnUse"><stop offset="0" stop-color="#00ffce"/><stop offset="1" stop-color="#a128fd"/></linearGradient><linearGradient id="Degradado_sin_nombre_3-2" x1="38.74" y1="108.77" x2="38.35" y2="7.93" xlink:href="#Degradado_sin_nombre_3"/><linearGradient id="Degradado_sin_nombre_3-3" x1="41.99" y1="-0.08" x2="42.87" y2="59.61" xlink:href="#Degradado_sin_nombre_3"/><linearGradient id="Degradado_sin_nombre_2" x1="42.74" y1="19.76" x2="42.8" y2="26.95" gradientUnits="userSpaceOnUse"><stop offset="0" stop-color="#03bde1" stop-opacity="0"/><stop offset="1"/></linearGradient><linearGradient id="Degradado_sin_nombre_2-2" x1="-690.78" y1="462.13" x2="-690.71" y2="469.32" gradientTransform="translate(-647.99 503.22) rotate(180)" xlink:href="#Degradado_sin_nombre_2"/></defs><title>AppLogo</title><g class="cls-1"><g id="Layer_2" data-name="Layer 2"><g id="Layer_1-2" data-name="Layer 1"><path class="cls-2" d="M45.64,14V27H39.89V20.81H16.47V49.47a7.26,7.26,0,0,1,3,6.09c0,3.86-2.64,7-5.9,7s-5.89-3.13-5.89-7a7.23,7.23,0,0,1,3-6.09V14Z"/><path class="cls-3" d="M77.13,30.43v66H0V5.06H54.84A7.22,7.22,0,0,1,61.39,0c4,0,7.17,3.79,7.17,8.47S65.35,17,61.39,17c-2.93,0-5.44-2.09-6.55-5.08H5.76V89.59H71.37V37.24H27.16v34.6h7.62v0h21.6V60.47A8.43,8.43,0,0,1,52.18,54a9.12,9.12,0,0,1-.08-1.29c0-4.68,3.2-8.48,7.15-8.48s7.17,3.8,7.17,8.48a8.64,8.64,0,0,1-4.29,7.77V78.68H34.78v0H21.41V30.43Z"/><path class="cls-4" d="M48.65,52.33c0,3.86-2.64,7-5.88,7s-5.9-3.12-5.9-7a7.26,7.26,0,0,1,3-6.09V33.83h5.75V46.24a7,7,0,0,1,2.89,4.69A7.93,7.93,0,0,1,48.65,52.33Z"/><polygon class="cls-5" points="39.89 27.02 45.64 27.02 45.64 18.95 39.89 20.81 39.89 27.02"/><polygon class="cls-6" points="45.64 33.84 39.88 33.84 39.88 41.9 45.64 40.04 45.64 33.84"/></g></g></g></svg>